<svg width="25" height="25" viewBox="0 0 25 25" fill="none" xmlns="http://www.w3.org/2000/svg">
<path d="M17.7109 2.08301H7.29427C4.41779 2.08301 2.08594 4.41486 2.08594 7.29134V17.708C2.08594 20.5845 4.41779 22.9163 7.29427 22.9163H17.7109C20.5874 22.9163 22.9193 20.5845 22.9193 17.708V7.29134C22.9193 4.41486 20.5874 2.08301 17.7109 2.08301Z" stroke="white" stroke-width="2" stroke-linecap="round" stroke-linejoin="round"/>
<path d="M16.6633 11.8436C16.7918 12.7105 16.6437 13.5959 16.2401 14.3738C15.8365 15.1517 15.1978 15.7825 14.415 16.1766C13.6321 16.5706 12.745 16.7077 11.8797 16.5685C11.0144 16.4293 10.2151 16.0207 9.59539 15.401C8.97568 14.7813 8.56716 13.982 8.42792 13.1167C8.28869 12.2514 8.42584 11.3643 8.81986 10.5815C9.21388 9.79863 9.84471 9.15997 10.6226 8.75633C11.4005 8.35268 12.2859 8.20461 13.1529 8.33316C14.0371 8.46429 14.8558 8.87635 15.4879 9.50848C16.1201 10.1406 16.5321 10.9593 16.6633 11.8436Z" stroke="white" stroke-width="2" stroke-linecap="round" stroke-linejoin="round"/>
<path d="M18.2266 6.77051H18.237" stroke="white" stroke-width="2" stroke-linecap="round" stroke-linejoin="round"/>
</svg>
